<svg aria-hidden="true" style="position: absolute; width: 0; height: 0; overflow: hidden;" version="1.1" xmlns="http://www.w3.org/2000/svg" xmlns:xlink="http://www.w3.org/1999/xlink">
<defs>
<symbol id="icon-shild" viewBox="0 0 27 32">
<path d="M12.863 0.253c-1.262 0.65-3.197 1.508-4.422 1.96-1.405 0.515-2.822 0.91-4.303 1.198-0.303 0.060-1.905 0.328-3.36 0.565-0.35 0.055-0.667 0.12-0.705 0.14l-0.072 0.037v0.505c0 0.88 0.15 4.323 0.263 6.067 0.042 0.63 0.177 2.297 0.203 2.463 0.065 0.467 0.365 1.885 0.563 2.67 0.438 1.737 0.828 2.908 1.512 4.535 0.353 0.837 0.683 1.457 1.455 2.733 0.57 0.935 0.985 1.547 1.68 2.475 0.88 1.17 1.865 2.19 3.293 3.402 1.617 1.378 1.838 1.55 2.553 1.975 0.252 0.152 0.56 0.343 0.688 0.425 0.268 0.177 0.98 0.532 1.145 0.573 0.11 0.027 0.127 0.023 0.363-0.075 0.46-0.195 0.848-0.39 1.098-0.555 0.137-0.087 0.46-0.288 0.717-0.442 0.622-0.372 1.045-0.703 2.457-1.913 0.948-0.813 1.060-0.92 1.78-1.672 0.942-0.985 1.105-1.18 1.942-2.337 0.675-0.933 1.058-1.532 1.805-2.817 0.625-1.080 1.225-2.457 1.79-4.113 0.427-1.258 1.020-3.785 1.18-5.037 0.172-1.34 0.372-4.973 0.455-8.24 0.015-0.612 0.012-0.643-0.030-0.657-0.148-0.043-1.225-0.237-2.035-0.365-1.105-0.178-2.18-0.37-2.738-0.49-1.6-0.35-3.155-0.843-4.75-1.505-0.983-0.407-2.275-0.998-3.24-1.48-0.707-0.355-0.64-0.355-1.285-0.023z"></path>
</symbol>
<symbol id="icon-sword" viewBox="0 0 30 32">
<path d="M29.637 0.177c-0.302 0.098-0.898 0.287-1.325 0.422-1.51 0.48-1.885 0.6-2.913 0.925-0.57 0.183-1.098 0.347-1.168 0.373l-0.133 0.040-7.675 9.075c-4.223 4.99-7.692 9.085-7.71 9.098-0.023 0.015-0.408-0.277-1.303-0.992l-1.27-1.012-0.885 1.060c-0.485 0.582-0.883 1.070-0.883 1.080s0.69 0.365 1.53 0.79c0.843 0.425 1.538 0.775 1.542 0.78 0.003 0.003-0.032 0.055-0.085 0.115-0.065 0.080-0.128 0.122-0.22 0.155-0.082 0.027-0.188 0.095-0.29 0.188l-0.16 0.142 0.030 0.133 0.027 0.135-0.18 0.212c-0.175 0.203-0.19 0.215-0.345 0.258-0.143 0.040-0.18 0.065-0.292 0.19l-0.13 0.145 0.013 0.137 0.015 0.137-0.17 0.225c-0.093 0.122-0.17 0.227-0.173 0.233-0.003 0.003-0.080 0.012-0.173 0.023l-0.168 0.015-0.138 0.165c-0.145 0.175-0.145 0.168-0.095 0.383 0.015 0.060-0.008 0.093-0.162 0.253-0.17 0.175-0.185 0.185-0.36 0.227-0.173 0.040-0.192 0.052-0.305 0.18l-0.12 0.14 0.033 0.135 0.033 0.133-0.14 0.185c-0.145 0.192-0.188 0.218-0.377 0.218-0.063 0-0.107 0.030-0.228 0.15-0.083 0.082-0.158 0.15-0.17 0.15-0.010 0-0.442-0.34-0.958-0.753-0.788-0.633-0.945-0.747-0.973-0.72-0.042 0.045-1.188 1.872-1.188 1.895 0 0.010 0.32 0.262 0.713 0.563s0.718 0.555 0.725 0.565c0.005 0.010-0.1 0.258-0.238 0.552-0.137 0.293-0.242 0.54-0.233 0.55 0.012 0.008 0.71 0.54 1.55 1.183l1.53 1.168 0.503-0.328c0.277-0.177 0.515-0.325 0.527-0.325s0.338 0.242 0.725 0.54c0.385 0.295 0.71 0.535 0.723 0.53 0.035-0.012 1.6-1.355 1.6-1.372 0-0.010-0.395-0.332-0.877-0.72-0.668-0.535-0.862-0.703-0.815-0.703 0.045 0 0.1-0.043 0.2-0.152 0.115-0.13 0.138-0.172 0.15-0.277 0.015-0.11 0.037-0.15 0.197-0.337 0.1-0.115 0.195-0.227 0.21-0.247 0.020-0.025 0.080-0.035 0.192-0.035h0.168l0.11-0.15c0.080-0.113 0.112-0.185 0.125-0.28 0.015-0.115 0.037-0.15 0.195-0.325 0.15-0.168 0.188-0.195 0.258-0.195 0.22 0 0.297-0.027 0.445-0.16l0.145-0.128-0.025-0.15-0.023-0.15 0.175-0.18c0.168-0.168 0.188-0.183 0.355-0.223 0.152-0.035 0.195-0.058 0.307-0.168 0.13-0.128 0.133-0.13 0.133-0.28v-0.15l0.207-0.207c0.197-0.195 0.22-0.212 0.385-0.255 0.152-0.040 0.19-0.063 0.303-0.18 0.12-0.122 0.13-0.14 0.13-0.26 0-0.102 0.012-0.137 0.065-0.188l0.065-0.060 0.090 0.1c0.053 0.055 0.525 0.57 1.053 1.145s0.967 1.043 0.98 1.038c0.047-0.017 1.873-1.955 1.855-1.97-0.010-0.010-0.557-0.407-1.215-0.887l-1.195-0.867 1.147-1.155c0.63-0.633 4.11-4.15 7.73-7.815s6.98-7.063 7.465-7.55l0.88-0.888 0.277-2.788c0.152-1.532 0.277-2.795 0.277-2.808 0-0.033-0.052-0.018-0.613 0.16z"></path>
</symbol>
</defs>
</svg>
